# xmcd CD database file
#
# Track frame offsets:
#	150
#	16342
#	45035
#	64502
#	84337
#	107790
#	129707
#	152622
#	170992
#	195657
#	227837
#	245315
#	265552
#
# Disc length: 3854 seconds
#
# Revision: 3
# Processed by: cddbd v1.4PL0 Copyright (c) Steve Scherf et al.
# Submitted via: CDex 1.50beta10
#
DISCID=9c0f0c0d
DTITLE=Big Time Sarah - A Million Of You
DYEAR=2001
DGENRE=Blues
TTITLE0=Train I Ride
TTITLE1=Riverboat
TTITLE2=Red Dress
TTITLE3=A Million Of You
TTITLE4=Fannie Mae
TTITLE5=The Sky Is Crying
TTITLE6=Daydreaming
TTITLE7=Trying To Make A Living
TTITLE8=I'll Take Care Of You
TTITLE9=Blue Guitar
TTITLE10=Stop Your Killing Me
TTITLE11=Don't Make Me Pay
TTITLE12=Jump!
EXTD=YEAR: 2001
EXTT0=
EXTT1=
EXTT2=
EXTT3=
EXTT4=
EXTT5=
EXTT6=
EXTT7=
EXTT8=
EXTT9=
EXTT10=
EXTT11=
EXTT12=
PLAYORDER=
